<svg height="512" viewBox="0 0 512 512" width="512" xmlns="http://www.w3.org/2000/svg"><g id="Layer_10" data-name="Layer 10"><rect fill="#cbcbcb" height="464" rx="20" width="256" x="128" y="24"/><rect fill="#e4e4e2" height="464" rx="20" width="248" x="128" y="24"/><path d="m128 72h256v368h-256z" fill="#6b9777"/><path d="m128 72h248v368h-248z" fill="#85bc94"/><path d="m128 72-64 48h384l-64-48z" fill="#ea9d2d"/><path d="m272 56h-32a8 8 0 0 1 0-16h32a8 8 0 0 1 0 16z" fill="#cbcbcb"/><path d="m272 472h-32a8 8 0 0 1 0-16h32a8 8 0 0 1 0 16z" fill="#cbcbcb"/><circle cx="328" cy="208" fill="#fbb540" r="24"/><circle cx="328" cy="352" fill="#fbb540" r="24"/><path d="m264 328-3.56 32-4.44 32h-48l-4.44-32-3.56-32z" fill="#e4e4e2"/><path d="m232 368a8 8 0 0 1 -8-8v-56a8 8 0 0 1 4.422-7.155l16-8a8 8 0 1 1 7.156 14.31l-11.578 5.789v51.056a8 8 0 0 1 -8 8z" fill="#cbcbcb"/><path d="m260.44 360-4.44 40h-48l-4.44-40z" fill="#fd9226"/><path d="m232 208a8 8 0 0 1 -8-8v-16a8 8 0 0 1 16 0v16a8 8 0 0 1 -8 8z" fill="#cbcbcb"/><path d="m328 360a7.976 7.976 0 0 1 -5.657-2.343l-16-16a8 8 0 0 1 11.314-11.314l10.343 10.344 26.343-26.344a8 8 0 0 1 11.314 11.314l-32 32a7.976 7.976 0 0 1 -5.657 2.343z" fill="#6b9777"/><path d="m192 120 32-48h-48l-48 48" fill="#dc4d41"/><path d="m384 120-48-48h48l64 48z" fill="#dc4d41"/><path d="m128 120h64a0 0 0 0 1 0 0 32 32 0 0 1 -32 32 32 32 0 0 1 -32-32 0 0 0 0 1 0 0z" fill="#f55648"/><path d="m192 120h64a0 0 0 0 1 0 0 32 32 0 0 1 -32 32 32 32 0 0 1 -32-32 0 0 0 0 1 0 0z" fill="#fbb540"/><path d="m256 120h64a0 0 0 0 1 0 0 32 32 0 0 1 -32 32 32 32 0 0 1 -32-32 0 0 0 0 1 0 0z" fill="#f55648"/><path d="m320 120h64a0 0 0 0 1 0 0 32 32 0 0 1 -32 32 32 32 0 0 1 -32-32 0 0 0 0 1 0 0z" fill="#fbb540"/><path d="m384 120h64a0 0 0 0 1 0 0 32 32 0 0 1 -32 32 32 32 0 0 1 -32-32 0 0 0 0 1 0 0z" fill="#f55648"/><path d="m96 152a32 32 0 0 1 -32-32h64a32 32 0 0 1 -32 32z" fill="#fbb540"/><path d="m256 120v-48h32l32 48z" fill="#dc4d41"/><path d="m280 248v16h-96v-16a48 48 0 0 1 44-47.83c1.32-.11 2.65-.17 4-.17a48 48 0 0 1 48 48z" fill="#ebebeb"/><path d="m272 248v16h-88v-16a48 48 0 0 1 44-47.83 48 48 0 0 1 44 47.83z" fill="#e4e4e2"/><path d="m304 272h-144a8 8 0 0 1 0-16h144a8 8 0 0 1 0 16z" fill="#cbcbcb"/><path d="m452.8 113.607v-.007l-60.8-45.6v-24a28.032 28.032 0 0 0 -28-28h-216a28.032 28.032 0 0 0 -28 28v24l-60.8 45.6v.007a7.978 7.978 0 0 0 -3.2 6.393 39.978 39.978 0 0 0 64 31.978v316.022a28.032 28.032 0 0 0 28 28h216a28.032 28.032 0 0 0 28-28v-316.022a39.978 39.978 0 0 0 64-31.978 7.978 7.978 0 0 0 -3.2-6.393zm-322.134-33.607h26.021l-32 32h-36.687zm117.334 0v32h-41.052l21.333-32zm35.719 0 21.333 32h-41.052v-32zm48.968 0 32 32h-40.406l-21.333-32zm41.942 48a24 24 0 0 1 -45.258 0zm-64 0a24 24 0 0 1 -45.258 0zm-64 0a24 24 0 0 1 -45.258 0zm-58.91-16h-40.406l32-32h29.739zm-5.09 16a24 24 0 0 1 -45.258 0zm-46.629 23.978a39.94 39.94 0 0 0 56-8.006 39.958 39.958 0 0 0 64 0 39.958 39.958 0 0 0 64 0 39.94 39.94 0 0 0 56 8.006v280.022h-240zm251.313-39.978-32-32h26.021l42.666 32zm-239.313-80h216a12.013 12.013 0 0 1 12 12v20h-240v-20a12.013 12.013 0 0 1 12-12zm-52 112a24.042 24.042 0 0 1 -22.629-16h45.258a24.042 24.042 0 0 1 -22.629 16zm268 336h-216a12.013 12.013 0 0 1 -12-12v-20h240v20a12.013 12.013 0 0 1 -12 12zm52-336a24.042 24.042 0 0 1 -22.629-16h45.258a24.042 24.042 0 0 1 -22.629 16z"/><path d="m240 56h32a8 8 0 0 0 0-16h-32a8 8 0 0 0 0 16z"/><path d="m272 456h-32a8 8 0 0 0 0 16h32a8 8 0 0 0 0-16z"/><path d="m312 264a8 8 0 0 0 -8-8h-16v-8a56.078 56.078 0 0 0 -48-55.419v-8.581a8 8 0 0 0 -16 0v8.581a56.078 56.078 0 0 0 -48 55.419v8h-16a8 8 0 0 0 0 16h144a8 8 0 0 0 8-8zm-120-8v-8a40 40 0 0 1 80 0v8z"/><path d="m328 240a32 32 0 1 0 -32-32 32.036 32.036 0 0 0 32 32zm0-48a16 16 0 1 1 -16 16 16.019 16.019 0 0 1 16-16z"/><path d="m264 320h-24v-11.056l11.578-5.789a8 8 0 1 0 -7.156-14.31l-16 8a8 8 0 0 0 -4.422 7.155v16h-24a8 8 0 0 0 -7.951 8.883l8 72a8 8 0 0 0 7.951 7.117h48a8 8 0 0 0 7.951-7.117l8-72a8 8 0 0 0 -7.951-8.883zm-8.938 16-1.778 16h-13.284v-16zm-31.062 0v16h-13.284l-1.778-16zm-8.84 56-2.666-24h39.012l-2.666 24z"/><path d="m354.343 314.343-10.1 10.1a32.037 32.037 0 1 0 11.314 11.314l10.1-10.1a8 8 0 0 0 -11.314-11.314zm-22.216 22.216-4.127 4.128-4.127-4.128a15.514 15.514 0 0 1 8.254 0zm11.873 15.441a16 16 0 1 1 -31.441-4.127l9.784 9.784a8 8 0 0 0 11.314 0l9.784-9.784a15.925 15.925 0 0 1 .559 4.127z"/></g></svg>