<svg height="512pt" viewBox="-5 0 512 512" width="512pt" xmlns="http://www.w3.org/2000/svg"><path d="m50 72.5h40v130h-40zm0 0" fill="#f0f0f0"/><path d="m422 72.5h40v130h-40zm0 0" fill="#f0f0f0"/><path d="m30 202h452v216h-452zm0 0" fill="#fa9600"/><path d="m50 482c0 11.046875-8.953125 20-20 20s-20-8.953125-20-20 8.953125-20 20-20 20 8.953125 20 20zm0 0" fill="#f0f0f0"/><path d="m182 372c0 71.796875 58.203125 130 130 130s130-58.203125 130-130-58.203125-130-130-130-130 58.203125-130 130zm220 0c0 49.707031-40.292969 90-90 90s-90-40.292969-90-90 40.292969-90 90-90 90 40.292969 90 90zm0 0" fill="#8c501e"/><path d="m130 162h200v40h-200zm0 0" fill="#fad296"/><path d="m210 122h120v40h-120zm0 0" fill="#62e7f4"/><path d="m70 82h-34.507812c-11.4375 0-18.667969-12.285156-13.109376-22.285156l27.617188-49.714844h60l-26.152344 62.769531c-2.332031 5.589844-7.792968 9.230469-13.847656 9.230469zm0 0" fill="#f03c32"/><path d="m138.597656 82h-36.097656c-10.703125 0-17.964844-10.890625-13.847656-20.769531l21.347656-51.230469h60l-16.949219 61.015625c-1.804687 6.492187-7.714843 10.984375-14.453125 10.984375zm0 0" fill="#00aaf0"/><path d="m206.9375 82h-37.203125c-9.921875 0-17.109375-9.457031-14.453125-19.015625l14.71875-52.984375h60l-8.203125 59.0625c-1.03125 7.417969-7.371094 12.9375-14.859375 12.9375zm0 0" fill="#f03c32"/><path d="m342.265625 82h-37.203125c-7.488281 0-13.828125-5.519531-14.859375-12.9375l-8.203125-59.0625h60l14.71875 52.984375c2.652344 9.558594-4.535156 19.015625-14.453125 19.015625zm0 0" fill="#f03c32"/><path d="m409.5 82h-36.097656c-6.738282 0-12.648438-4.492188-14.453125-10.984375l-16.949219-61.015625h60l21.347656 51.230469c4.117188 9.878906-3.144531 20.769531-13.847656 20.769531zm0 0" fill="#00aaf0"/><path d="m476.507812 82h-34.507812c-6.054688 0-11.515625-3.640625-13.847656-9.230469l-26.152344-62.769531h60l27.621094 49.714844c5.554687 10-1.675782 22.285156-13.113282 22.285156zm0 0" fill="#f03c32"/><path d="m274.773438 82h-37.546876c-9.105468 0-16.109374-8.046875-14.855468-17.0625l7.628906-54.9375h52l7.628906 54.9375c1.253906 9.015625-5.75 17.0625-14.855468 17.0625zm0 0" fill="#00aaf0"/><path d="m312 272c-55.140625 0-100 44.859375-100 100s44.859375 100 100 100 100-44.859375 100-100-44.859375-100-100-100zm-10 20.648438v37.851562c0 5.511719 4.488281 10 10 10s10-4.488281 10-10v-37.851562c19.3125 2.417968 36.511719 11.730468 49.023438 25.414062l-25.921876 18.480469c-4.496093 3.207031-5.542968 9.453125-2.335937 13.949219 1.949219 2.734374 5.027344 4.195312 8.148437 4.195312 2.011719 0 4.035157-.605469 5.796876-1.859375l25.871093-18.441406c6.003907 11.21875 9.417969 24.023437 9.417969 37.613281 0 12.945312-3.109375 25.167969-8.59375 36h-3.089844l-23.605468-16.832031c-4.496094-3.203125-10.738282-2.15625-13.945313 2.339843-3.207031 4.496094-2.160156 10.738282 2.335937 13.945313l.761719.546875h-24.191406c-1.117187-4.304688-5.027344-7.5-9.671875-7.5s-8.554688 3.195312-9.667969 7.5h-23.195312l.765625-.546875c4.496094-3.207031 5.542968-9.449219 2.335937-13.945313-3.207031-4.496093-9.449219-5.542968-13.949219-2.339843l-23.605468 16.832031h-4.089844c-5.484375-10.828125-8.59375-23.054688-8.59375-36 0-13.800781 3.511719-26.792969 9.6875-38.136719l26.601562 18.964844c1.761719 1.257813 3.785157 1.859375 5.796876 1.859375 3.121093 0 6.199218-1.457031 8.148437-4.195312 3.207031-4.496094 2.160156-10.742188-2.335937-13.945313l-26.519532-18.910156c12.480469-13.445313 29.511719-22.59375 48.621094-24.988281zm-47.058594 135.351562h47.058594v23.351562c-18.324219-2.296874-34.738281-10.800781-47.058594-23.351562zm67.058594 23.351562v-23.351562h47.058594c-12.320313 12.550781-28.734375 21.054688-47.058594 23.351562zm0 0"/><path d="m312 380.5c5.511719 0 10-4.488281 10-10 0-5.519531-4.488281-10-10-10s-10 4.480469-10 10c0 5.511719 4.488281 10 10 10zm0 0"/><path d="m498.359375 54.859375-27.617187-49.714844c-1.765626-3.175781-5.109376-5.144531-8.742188-5.144531h-412c-3.632812 0-6.976562 1.96875-8.742188 5.144531l-27.617187 49.714844c-4.351563 7.824219-4.234375 17.105469.304687 24.820313 4.539063 7.714843 12.59375 12.320312 21.546876 12.320312h4.507812v100h-10c-5.523438 0-10 4.476562-10 10v251.71875c-11.640625 4.128906-20 15.246094-20 28.28125 0 16.542969 13.457031 30 30 30s30-13.457031 30-30c0-13.035156-8.359375-24.152344-20-28.28125v-25.71875h143.703125c21.644531 49.398438 71 84 128.296875 84s106.652344-34.601562 128.296875-84h41.703125c5.523438 0 10-4.476562 10-10v-216c0-5.523438-4.476562-10-10-10h-10v-100h4.507812c8.953126 0 17.007813-4.605469 21.546876-12.320312 4.539062-7.714844 4.65625-16.996094.304687-24.820313zm-158.359375 137.140625v-70c0-5.523438-4.476562-10-10-10h-120c-5.523438 0-10 4.476562-10 10v30h-70c-5.523438 0-10 4.476562-10 10v30h-20v-100.136719c.824219.082031 1.660156.136719 2.5.136719h36.097656c5.785156 0 11.214844-2.023438 15.535156-5.457031 4.375 3.511719 9.816407 5.457031 15.601563 5.457031h37.203125c5.625 0 10.875-1.917969 15.109375-5.144531 4.324219 3.304687 9.644531 5.144531 15.179687 5.144531h37.546876c5.535156 0 10.855468-1.839844 15.179687-5.144531 4.230469 3.226562 9.480469 5.144531 15.105469 5.144531h37.207031c5.785156 0 11.226563-1.945312 15.597656-5.457031 4.324219 3.433593 9.753907 5.457031 15.539063 5.457031h36.097656c.839844 0 1.675781-.054688 2.5-.136719v100.136719zm-20-40h-100v-20h100zm0 20v20h-180v-20zm-107.535156-108.4375-.574219 4.125c-.339844 2.457031-2.46875 4.3125-4.953125 4.3125h-37.203125c-2.15625 0-3.421875-1.238281-3.980469-1.976562-.558594-.738282-1.414062-2.28125-.835937-4.363282l12.683593-45.660156h40.914063zm26.242187-43.5625h34.585938l5.679687 40.894531.75 5.417969c.273438 1.960938-.621094 3.332031-1.179687 3.972656-.558594.640625-1.789063 1.714844-3.769531 1.714844h-37.546876c-1.980468 0-3.210937-1.074219-3.769531-1.714844-.558593-.640625-1.453125-2.011718-1.183593-3.972656l.753906-5.417969zm95.691407 0 12.683593 45.660156c.578125 2.082032-.273437 3.628906-.835937 4.363282-.5625.738281-1.824219 1.976562-3.980469 1.976562h-37.207031c-2.480469 0-4.609375-1.855469-4.949219-4.3125l-.574219-4.125-6.050781-43.5625zm60.933593 0 18.78125 45.078125c.898438 2.148437.101563 3.863281-.453125 4.695313-.554687.832031-1.832031 2.226562-4.160156 2.226562h-36.097656c-2.238282 0-4.21875-1.507812-4.820313-3.660156l-13.425781-48.339844zm-251.914062 48.339844c-.601563 2.152344-2.582031 3.660156-4.820313 3.660156h-36.097656c-2.328125 0-3.605469-1.394531-4.160156-2.226562-.554688-.832032-1.351563-2.546876-.453125-4.699219l18.78125-45.074219h40.175781zm-112.234375 1.195312c-.4375-.742187-1.316406-2.707031-.0625-4.964844l24.761718-44.570312h39.117188l-20.386719 48.925781c-.777343 1.867188-2.589843 3.074219-4.613281 3.074219h-34.507812c-2.582032 0-3.875-1.722656-4.308594-2.464844zm28.816406 22.464844h10c3.523438 0 6.90625-.746094 10-2.09375v102.09375h-20zm-30 400c-5.515625 0-10-4.484375-10-10s4.484375-10 10-10 10 4.484375 10 10-4.484375 10-10 10zm282 0c-66.167969 0-120-53.832031-120-120s53.832031-120 120-120 120 53.832031 120 120-53.832031 120-120 120zm160-84h-24.699219c3.058594-11.492188 4.699219-23.558594 4.699219-36 0-77.195312-62.804688-140-140-140-75.859375 0-137.8125 60.644531-139.9375 136h-62.0625c-5.511719 0-10 4.488281-10 10s4.488281 10 10 10h62.921875c.777344 6.828125 2.050781 13.503906 3.777344 20h-136.699219v-196h432zm-20-216h-20v-102.09375c3.09375 1.347656 6.476562 2.09375 10 2.09375h10zm28.816406-122.464844c-.4375.742188-1.730468 2.464844-4.308594 2.464844h-34.507812c-2.027344 0-3.835938-1.207031-4.617188-3.078125l-20.382812-48.921875h39.117188l24.761718 44.570312c1.253906 2.257813.375 4.222657-.0625 4.964844zm0 0"/><path d="m70 368c-5.511719 0-10 4.488281-10 10s4.488281 10 10 10 10-4.488281 10-10-4.488281-10-10-10zm0 0"/></svg>